# xmcd
#
# Track frame offsets:
# 150
# 11852
# 21979
# 39861
# 49258
# 63118
# 74895
# 90892
# 102331
# 116396
# 128658
# 137202
# 152397
# 170059
# 186231
# 195978
# 211872
# 222104
# 230946
# 245021
# 255280
# 269667
# 280822
# 290279
# 303213
# 320068
#
# Disc length: 4382 seconds
#
#
# Revision: 0
# Processed by: cddbd v1.5PL3 Copyright (c) Steve Scherf et al.
# Submitted via: FreeRIP 2.60 
#
DISCID=7c111c1a
DTITLE=John Jackson - Don't Let Your Deal Go Down
DYEAR=1900
DGENRE=
TTITLE0=Going Down in Georgia on a Horn
TTITLE1=Black Snake Moan
TTITLE2=John Henry
TTITLE3=If Hattie Wants to LU, Let Her LU Like a Man
TTITLE4=Nobody's Business but Mine
TTITLE5=John's Rag
TTITLE6=Boats Up the River
TTITLE7=Rattlesnakin' Daddy
TTITLE8=Flat Foot and Buck Dance
TTITLE9=Bear Cat Blues
TTITLE10=Reuben
TTITLE11=Rocks and Gravel
TTITLE12=Going Down the Road Fellin' Bad
TTITLE13=Police Dog Blues
TTITLE14=Don't Let Your Deal Go Down
TTITLE15=Muleskinner Blues
TTITLE16=I Bring My Money
TTITLE17=John's Ragtime
TTITLE18=Red River Blues
TTITLE19=Knife Blues
TTITLE20=Trucking Little Baby
TTITLE21=Blind Blake's Rag
TTITLE22=Goodbye Booze
TTITLE23=Graveyard Blues
TTITLE24=
TTITLE25=
EXTD=
EXTT0=
EXTT1=
EXTT2=
EXTT3=
EXTT4=
EXTT5=
EXTT6=
EXTT7=
EXTT8=
EXTT9=
EXTT10=
EXTT11=
EXTT12=
EXTT13=
EXTT14=
EXTT15=
EXTT16=
EXTT17=
EXTT18=
EXTT19=
EXTT20=
EXTT21=
EXTT22=
EXTT23=
EXTT24=
EXTT25=
PLAYORDER=
